{
  "accessors": [
    {
      "bufferView": 2,
      "componentType": 5126,
      "count": 32910,
      "max": [
        22.505077362060547,
        95.19586181640625,
        31.153186798095703
      ],
      "min": [
        -22.505077362060547,
        -2.0861625671386719e-07,
        -17.228759765625
      ],
      "type": "VEC3"
    },
    {
      "bufferView": 2,
      "byteOffset": 394920,
      "componentType": 5126,
      "count": 32910,
      "max": [
        1,
        1,
        1
      ],
      "min": [
        -1,
        -1,
        -1
      ],
      "type": "VEC3"
    },
    {
      "bufferView": 3,
      "componentType": 5126,
      "count": 32910,
      "max": [
        1,
        1,
        1,
        1
      ],
      "min": [
        -1,
        -1,
        -1,
        -1
      ],
      "type": "VEC4"
    },
    {
      "bufferView": 1,
      "componentType": 5126,
      "count": 32910,
      "max": [
        0.99780851602554321,
        0.97881984710693359
      ],
      "min": [
        0.0021914311219006777,
        0.0021914311219006777
      ],
      "type": "VEC2"
    },
    {
      "bufferView": 1,
      "byteOffset": 263280,
      "componentType": 5126,
      "count": 32910,
      "max": [
        1.9701733589172363,
        1.5111027956008911
      ],
      "min": [
        -0.65380257368087769,
        -0.61802899837493896
      ],
      "type": "VEC2"
    },
    {
      "bufferView": 0,
      "componentType": 5125,
      "count": 126885,
      "max": [
        32909
      ],
      "min": [
        0
      ],
      "type": "SCALAR"
    },
    {
      "bufferView": 2,
      "byteOffset": 789840,
      "componentType": 5126,
      "count": 28,
      "max": [
        18.971412658691406,
        46.415321350097656,
        27.726642608642578
      ],
      "min": [
        -19.369838714599609,
        46.348651885986328,
        -4.5734972953796387
      ],
      "type": "VEC3"
    },
    {
      "bufferView": 2,
      "byteOffset": 790176,
      "componentType": 5126,
      "count": 28,
      "max": [
        0,
        1,
        0.00024415552616119385
      ],
      "min": [
        0,
        1,
        0.00024414807558059692
      ],
      "type": "VEC3"
    },
    {
      "bufferView": 3,
      "byteOffset": 526560,
      "componentType": 5126,
      "count": 28,
      "max": [
        0.99948543310165405,
        0.00024415549705736339,
        0.00021958495199214667,
        1
      ],
      "min": [
        -1,
        -5.3612886574683216e-08,
        -0.99999988079071045,
        -1
      ],
      "type": "VEC4"
    },
    {
      "bufferView": 1,
      "byteOffset": 526560,
      "componentType": 5126,
      "count": 28,
      "max": [
        0.83036553859710693,
        0.99972665309906006
      ],
      "min": [
        0.00027325347764417529,
        0.00027325347764417529
      ],
      "type": "VEC2"
    },
    {
      "bufferView": 1,
      "byteOffset": 526784,
      "componentType": 5126,
      "count": 28,
      "max": [
        -0.047373563051223755,
        0.13877351582050323
      ],
      "min": [
        -0.37937119603157043,
        -0.54907530546188354
      ],
      "type": "VEC2"
    },
    {
      "bufferView": 0,
      "byteOffset": 507540,
      "componentType": 5125,
      "count": 78,
      "max": [
        27
      ],
      "min": [
        0
      ],
      "type": "SCALAR"
    }
  ],
  "asset": {
    "extras": {
      "author": "Interiors3D (https://sketchfab.com/Interiors3D)",
      "license": "CC-BY-4.0 (http://creativecommons.org/licenses/by/4.0/)",
      "source": "https://sketchfab.com/3d-models/lgha00-d730da2098b14c4082ae3027b394c44c",
      "title": "LGHA00"
    },
    "generator": "Sketchfab-9.31.1",
    "version": "2.0"
  },
  "bufferViews": [
    {
      "buffer": 0,
      "byteLength": 507852,
      "byteOffset": 0,
      "name": "floatBufferViews",
      "target": 34963
    },
    {
      "buffer": 0,
      "byteLength": 527008,
      "byteOffset": 507852,
      "byteStride": 8,
      "name": "floatBufferViews",
      "target": 34962
    },
    {
      "buffer": 0,
      "byteLength": 790512,
      "byteOffset": 1034860,
      "byteStride": 12,
      "name": "floatBufferViews",
      "target": 34962
    },
    {
      "buffer": 0,
      "byteLength": 527008,
      "byteOffset": 1825372,
      "byteStride": 16,
      "name": "floatBufferViews",
      "target": 34962
    }
  ],
  "buffers": [
    {
      "byteLength": 2352380,
      "uri": "scene.bin"
    }
  ],
  "images": [
    {
      "uri": "textures/Gustavien_baseColor.jpeg"
    },
    {
      "uri": "textures/Gustavien_metallicRoughness.png"
    },
    {
      "uri": "textures/Gustavien_normal.jpeg"
    },
    {
      "uri": "textures/Gustavien.rattan_baseColor.png"
    },
    {
      "uri": "textures/Gustavien.rattan_metallicRoughness.png"
    },
    {
      "uri": "textures/Gustavien.rattan_normal.jpeg"
    }
  ],
  "materials": [
    {
      "doubleSided": true,
      "name": "Gustavien",
      "normalTexture": {
        "index": 2,
        "scale": 1,
        "texCoord": 0
      },
      "pbrMetallicRoughness": {
        "baseColorFactor": [
          1,
          1,
          1,
          1
        ],
        "baseColorTexture": {
          "index": 0,
          "texCoord": 0
        },
        "metallicFactor": 0,
        "metallicRoughnessTexture": {
          "index": 1,
          "texCoord": 0
        },
        "roughnessFactor": 1
      }
    },
    {
      "alphaMode": "BLEND",
      "doubleSided": true,
      "name": "Gustavien.rattan",
      "normalTexture": {
        "index": 5,
        "scale": 1,
        "texCoord": 0
      },
      "occlusionTexture": {
        "index": 4,
        "strength": 1,
        "texCoord": 0
      },
      "pbrMetallicRoughness": {
        "baseColorFactor": [
          1,
          1,
          1,
          1
        ],
        "baseColorTexture": {
          "index": 3,
          "texCoord": 0
        },
        "metallicFactor": 0,
        "metallicRoughnessTexture": {
          "index": 4,
          "texCoord": 0
        },
        "roughnessFactor": 1
      }
    }
  ],
  "meshes": [
    {
      "primitives": [
        {
          "attributes": {
            "NORMAL": 1,
            "POSITION": 0,
            "TANGENT": 2,
            "TEXCOORD_0": 3,
            "TEXCOORD_1": 4
          },
          "indices": 5,
          "material": 0,
          "mode": 4
        }
      ]
    },
    {
      "primitives": [
        {
          "attributes": {
            "NORMAL": 7,
            "POSITION": 6,
            "TANGENT": 8,
            "TEXCOORD_0": 9,
            "TEXCOORD_1": 10
          },
          "indices": 11,
          "material": 1,
          "mode": 4
        }
      ]
    }
  ],
  "nodes": [
    {
      "children": [
        1
      ],
      "name": "RootNode (gltf orientation matrix)",
      "rotation": [
        -0.70710678118654746,
        -0,
        -0,
        0.70710678118654757
      ]
    },
    {
      "children": [
        2
      ],
      "name": "RootNode (model correction matrix)"
    },
    {
      "children": [
        3
      ],
      "name": "root"
    },
    {
      "children": [
        4,
        6
      ],
      "matrix": [
        1,
        0,
        0,
        0,
        0,
        2.2204460492503131e-16,
        1,
        0,
        0,
        -1,
        2.2204460492503131e-16,
        0,
        0,
        0,
        0,
        1
      ],
      "name": "GLTF_SceneRootNode"
    },
    {
      "children": [
        5
      ],
      "name": "LGHA.paint_0"
    },
    {
      "mesh": 0,
      "name": ""
    },
    {
      "children": [
        7
      ],
      "name": "LGHA.rattan_1"
    },
    {
      "mesh": 1,
      "name": ""
    }
  ],
  "samplers": [
    {
      "magFilter": 9729,
      "minFilter": 9987,
      "wrapS": 10497,
      "wrapT": 10497
    }
  ],
  "scene": 0,
  "scenes": [
    {
      "name": "OSG_Scene",
      "nodes": [
        0
      ]
    }
  ],
  "textures": [
    {
      "sampler": 0,
      "source": 0
    },
    {
      "sampler": 0,
      "source": 1
    },
    {
      "sampler": 0,
      "source": 2
    },
    {
      "sampler": 0,
      "source": 3
    },
    {
      "sampler": 0,
      "source": 4
    },
    {
      "sampler": 0,
      "source": 5
    }
  ]
}

